<svg version="1.1" id="Layer_1" xmlns="http://www.w3.org/2000/svg" xmlns:xlink="http://www.w3.org/1999/xlink" x="0px" y="0px"
	 width="100%" viewBox="0 0 1024 1008" enable-background="new 0 0 1024 1008" xml:space="preserve">
<path fill="#000000" opacity="1.000000" stroke="none" 
	d="
M791.356079,230.264618 
	C775.022583,273.115265 753.373901,312.176849 719.972595,343.827972 
	C710.671875,352.641388 699.933533,359.959686 691.847900,370.019897 
	C676.715881,388.847473 656.630188,402.561890 640.446228,420.291779 
	C622.225403,440.253113 600.779053,456.910217 582.348999,476.628174 
	C573.953674,485.610168 566.639526,495.606720 558.923523,505.214203 
	C558.025330,506.332550 557.572388,507.866608 557.117004,509.273926 
	C549.158752,533.869690 542.314453,558.765869 539.597046,584.540283 
	C537.051758,608.682861 533.819275,632.740723 532.945862,657.081482 
	C531.320862,702.371460 531.056763,747.683594 529.825806,792.975586 
	C528.431335,844.282593 528.106262,895.593628 528.280945,946.912537 
	C528.297791,951.860779 527.701355,956.584900 524.320129,960.488220 
	C523.154907,961.833374 521.997681,963.693115 519.833679,962.918518 
	C517.751404,962.173096 517.714172,960.105530 517.718872,958.263123 
	C517.751831,945.265137 517.867615,932.267273 517.869446,919.269348 
	C517.871826,902.295715 517.519653,885.317322 517.809326,868.349426 
	C518.340820,837.209839 519.211975,806.076050 519.976501,774.940613 
	C520.516052,752.965332 521.265320,730.994141 521.650330,709.016296 
	C522.300720,671.878723 524.461914,634.787415 524.768433,597.637512 
	C524.981689,571.787048 516.434937,548.285156 506.343872,525.129700 
	C504.708710,521.377625 501.006165,519.866455 497.646027,517.977600 
	C480.806885,508.511536 461.984558,504.167816 444.202820,497.143738 
	C405.678741,481.926147 368.799896,463.565674 334.278137,440.535889 
	C311.670166,425.453918 289.238678,410.167969 268.894165,392.065094 
	C252.574493,377.543579 237.517456,361.864105 223.584641,344.959778 
	C202.539001,319.425568 188.475403,290.019440 175.212799,260.205109 
	C170.709442,250.081573 165.344254,240.213760 162.398148,229.382446 
	C160.511871,222.447510 160.782669,222.062134 167.693420,221.671249 
	C178.900391,221.037354 189.539734,217.360123 200.444168,215.112778 
	C218.418152,211.408447 236.534454,208.734818 254.855225,208.278717 
	C273.451874,207.815750 291.689148,211.124771 309.511658,216.226349 
	C345.833923,226.623291 378.806946,243.740570 408.292694,267.316895 
	C432.119934,286.368744 450.901245,309.832306 466.411102,336.011139 
	C492.847046,380.631836 509.195709,429.150208 520.476685,479.384003 
	C524.761353,498.463501 528.004639,517.868652 531.260254,537.209717 
	C531.552612,538.946716 532.195862,540.624756 532.961243,543.342529 
	C534.247986,540.360229 534.596497,538.338501 534.675842,536.222229 
	C535.350464,518.225830 534.586731,500.344604 532.782166,482.376282 
	C530.989563,464.526672 529.341370,446.620911 528.416992,428.651917 
	C527.751038,415.707428 528.046875,402.746796 527.003113,389.787933 
	C525.746399,374.183472 527.748718,358.548615 529.995483,343.026550 
	C532.405518,326.376038 536.059509,309.983734 539.814514,293.607788 
	C542.661011,281.194366 548.209839,269.738617 553.001160,258.062988 
	C565.778870,226.926239 585.413025,199.680420 606.068176,173.729889 
	C636.916687,134.972672 675.920654,105.950577 722.262695,87.235512 
	C742.337646,79.128296 763.154053,72.956985 782.783752,63.729382 
	C787.003784,61.745590 791.230408,59.773499 795.413086,57.712948 
	C799.050537,55.920986 800.797913,57.415558 801.151367,61.016689 
	C801.394714,63.495251 801.412659,66.016609 801.290588,68.507034 
	C800.421997,86.228081 803.102234,103.728210 804.695251,121.279060 
	C808.070557,158.466553 804.624878,194.748718 791.356079,230.264618 
z"/>
</svg>